<?xml version="1.0" encoding="UTF-8" standalone="no"?>
<svg
   xmlns:dc="http://purl.org/dc/elements/1.1/"
   xmlns:cc="http://creativecommons.org/ns#"
   xmlns:rdf="http://www.w3.org/1999/02/22-rdf-syntax-ns#"
   xmlns:svg="http://www.w3.org/2000/svg"
   xmlns="http://www.w3.org/2000/svg"
   xmlns:sodipodi="http://sodipodi.sourceforge.net/DTD/sodipodi-0.dtd"
   xmlns:inkscape="http://www.inkscape.org/namespaces/inkscape"
   width="125.28783pt"
   height="52.762775pt"
   viewBox="0 0 44.198765 18.613535"
   version="1.1"
   id="svg1259"
   inkscape:version="1.0.2 (e86c8708, 2021-01-15)"
   sodipodi:docname="apm-logo-inkscape.svg">
  <defs
     id="defs1253" />
  <sodipodi:namedview
     id="base"
     pagecolor="#ffffff"
     bordercolor="#666666"
     borderopacity="1.0"
     inkscape:pageopacity="0.0"
     inkscape:pageshadow="2"
     inkscape:zoom="1.07"
     inkscape:cx="1.9378253"
     inkscape:cy="35.175166"
     inkscape:document-units="mm"
     inkscape:current-layer="layer1"
     inkscape:document-rotation="0"
     showgrid="false"
     fit-margin-top="3"
     fit-margin-left="3"
     fit-margin-right="3"
     fit-margin-bottom="3"
     units="pt"
     inkscape:window-width="1792"
     inkscape:window-height="1067"
     inkscape:window-x="0"
     inkscape:window-y="25"
     inkscape:window-maximized="1" />
  <metadata
     id="metadata1256">
    <rdf:RDF>
      <cc:Work
         rdf:about="">
        <dc:format>image/svg+xml</dc:format>
        <dc:type
           rdf:resource="http://purl.org/dc/dcmitype/StillImage" />
        <dc:title></dc:title>
      </cc:Work>
    </rdf:RDF>
  </metadata>
  <g
     inkscape:label="Layer 1"
     inkscape:groupmode="layer"
     id="layer1"
     transform="translate(-102.29681,-163.05037)">
    <g
       id="g1970">
      <path
         class="st2"
         d="m 111.61681,175.91578 c 0,0.7673 -0.10583,1.45521 -0.3175,2.06375 -0.21166,0.60855 -0.60854,1.45521 -1.21708,2.51355 l -0.89958,-0.3175 c 0.23812,-1.0848 0.37041,-1.95792 0.37041,-2.64584 0,-0.52916 -0.0529,-1.27 -0.15875,-2.27541 -0.10583,-1.00542 -0.23812,-1.98438 -0.37041,-2.96334 -0.15875,-0.97896 -0.39688,-2.14312 -0.74084,-3.51896 -0.13229,-0.47625 -0.1852,-0.79375 -0.1852,-0.97895 0,-0.26459 0.15875,-0.71438 0.47625,-1.34938 0.3175,-0.635 0.74083,-1.40229 1.32291,-2.30187 l 0.89959,4.49791 c 0.34395,1.71979 0.55562,3.20146 0.68791,4.47146 0.0794,0.97896 0.13229,1.905 0.13229,2.80458 z"
         id="path1055"
         style="fill:#bc2a01;stroke-width:0.264583" />
      <path
         class="st2"
         d="m 124.44911,169.9362 -3.88938,-5.42396 h -3.4925 l 3.67771,5.18584 c -1.77271,0.89958 -2.80458,2.61937 -3.09563,5.15937 l -0.635,5.47688 h 2.93688 l 0.635,-5.47688 c 0.15875,-1.53458 0.71437,-2.56646 1.64042,-3.06917 l 2.19604,3.12209 v -4.97417 z"
         id="path1057"
         style="fill:#bc2a01;stroke-width:0.264583" />
      <path
         class="st2"
         d="m 134.90015,177.68849 c -0.635,0.47625 -1.45521,0.79375 -2.46063,0.79375 -1.45521,0 -2.67229,-0.87312 -2.67229,-2.69875 0,-2.54 2.48708,-3.33375 5.13292,-3.4925 v -1.95791 c -5.13292,0.29104 -7.96396,2.30187 -7.96396,5.74145 0,2.24896 1.61396,4.47146 4.7625,4.47146 1.24354,0 2.32833,-0.34396 3.20146,-0.87312 z"
         id="path1059"
         style="fill:#bc2a01;fill-opacity:1;stroke-width:0.264583" />
      <path
         class="st2"
         d="m 132.75702,166.39078 c 0.92604,0 1.61396,0.21167 2.14313,0.52917 v -2.43417 c -0.50271,-0.10583 -1.0848,-0.15875 -1.7198,-0.15875 -1.95791,0 -3.83645,0.55563 -5.10645,1.37584 l 0.635,1.85208 c 1.08479,-0.71437 2.59291,-1.16417 4.04812,-1.16417 z"
         id="path1061"
         style="fill:#bc2a01;fill-opacity:1;stroke-width:0.264583" />
      <line
         class="st3"
         x1="134.90015"
         y1="164.22121"
         x2="134.90015"
         y2="180.49307"
         id="line1065"
         style="fill:none;stroke:#585858;stroke-width:0.225002;stroke-linecap:round;stroke-miterlimit:10" />
      <line
         class="st3"
         x1="124.4491"
         y1="164.22121"
         x2="124.4491"
         y2="180.49307"
         id="line1067"
         style="fill:none;stroke:#585858;stroke-width:0.225002;stroke-linecap:round;stroke-miterlimit:10" />
      <line
         class="st3"
         x1="113.91869"
         y1="164.22121"
         x2="113.91869"
         y2="180.49307"
         id="line1069"
         style="fill:none;stroke:#585858;stroke-width:0.225002;stroke-linecap:round;stroke-miterlimit:10" />
      <line
         class="st3"
         x1="103.46764"
         y1="164.22121"
         x2="103.46764"
         y2="180.49307"
         id="line1071"
         style="fill:none;stroke:#585858;stroke-width:0.225002;stroke-linecap:round;stroke-miterlimit:10" />
      <polygon
         class="st2"
         points="327.1,45.9 327.1,53.9 352.2,66.3 352.2,58.7 "
         id="polygon1073"
         style="fill:#bc2a01;fill-opacity:1"
         transform="matrix(0.26458333,0,0,0.26458333,52.138481,156.46891)" />
      <polygon
         class="st2"
         points="327.1,83.2 327.1,91.1 352.2,78.4 352.2,70.7 "
         id="polygon1075"
         style="fill:#bc2a01;fill-opacity:1"
         transform="matrix(0.26458333,0,0,0.26458333,52.138481,156.46891)" />
      <line
         class="st3"
         x1="145.32474"
         y1="164.22121"
         x2="145.32474"
         y2="180.49307"
         id="line1079"
         style="fill:none;stroke:#585858;stroke-width:0.225002;stroke-linecap:round;stroke-miterlimit:10" />
    </g>
  </g>
</svg>
