<?xml version="1.0" encoding="UTF-8" standalone="no"?>
<svg
   xmlns:dc="http://purl.org/dc/elements/1.1/"
   xmlns:cc="http://creativecommons.org/ns#"
   xmlns:rdf="http://www.w3.org/1999/02/22-rdf-syntax-ns#"
   xmlns:svg="http://www.w3.org/2000/svg"
   xmlns="http://www.w3.org/2000/svg"
   width="52.762779pt"
   height="52.762779pt"
   viewBox="0 0 18.613538 18.613536"
   version="1.1"
   id="svg1259">
  <defs
     id="defs1253" />
  <metadata
     id="metadata1256">
    <rdf:RDF>
      <cc:Work
         rdf:about="">
        <dc:format>image/svg+xml</dc:format>
        <dc:type
           rdf:resource="http://purl.org/dc/dcmitype/StillImage" />
        <dc:title></dc:title>
      </cc:Work>
    </rdf:RDF>
  </metadata>
  <g
     id="layer1"
     transform="translate(-102.29681,-163.05037)">
    <g
       id="g2118"
       transform="translate(-0.32420399,-0.24727026)">
      <path
         class="st2"
         d="m 108.40225,176.16305 c 0,0.7673 -0.10583,1.45521 -0.3175,2.06375 -0.21166,0.60855 -0.60854,1.45521 -1.21708,2.51355 l -0.89958,-0.3175 c 0.23812,-1.0848 0.37041,-1.95792 0.37041,-2.64584 0,-0.52916 -0.0529,-1.27 -0.15875,-2.27541 -0.10583,-1.00542 -0.23812,-1.98438 -0.37041,-2.96334 -0.15875,-0.97896 -0.39688,-2.14312 -0.74084,-3.51896 -0.13229,-0.47625 -0.1852,-0.79375 -0.1852,-0.97895 0,-0.26459 0.15875,-0.71438 0.47625,-1.34938 0.3175,-0.635 0.74083,-1.40229 1.32291,-2.30187 l 0.89959,4.49791 c 0.34395,1.71979 0.55562,3.20146 0.68791,4.47146 0.0794,0.97896 0.13229,1.905 0.13229,2.80458 z"
         id="path1055"
         style="fill:#bc2a01;stroke-width:0.264583" />
      <path
         class="st2"
         d="m 121.23455,170.18347 -3.88938,-5.42396 h -3.4925 l 3.67771,5.18584 c -1.77271,0.89958 -2.80458,2.61937 -3.09563,5.15937 l -0.635,5.47688 h 2.93688 l 0.635,-5.47688 c 0.15875,-1.53458 0.71437,-2.56646 1.64042,-3.06917 l 2.19604,3.12209 v -4.97417 z"
         id="path1057"
         style="fill:#bc2a01;stroke-width:0.264583" />
      <line
         class="st3"
         x1="110.70413"
         y1="164.46848"
         x2="110.70413"
         y2="180.74034"
         id="line1069"
         style="fill:none;stroke:#585858;stroke-width:0.225002;stroke-linecap:round;stroke-miterlimit:10" />
    </g>
  </g>
</svg>
