<?xml version="1.0" encoding="utf-8"?>
<!-- Generator: Adobe Illustrator 20.1.0, SVG Export Plug-In . SVG Version: 6.00 Build 0)  -->
<svg version="1.1" id="Ebene_1" xmlns="http://www.w3.org/2000/svg" xmlns:xlink="http://www.w3.org/1999/xlink" x="0px" y="0px"
	 viewBox="0 0 682.7 120.2" style="enable-background:new 0 0 682.7 120.2;" xml:space="preserve">
<style type="text/css">
	.st0{fill:#FFFFFF;}
	.st1{fill:#313131;}
	.st2{fill:#BC2A01;}
	.st3{fill:none;stroke:#585858;stroke-width:0.8504;stroke-linecap:round;stroke-miterlimit:10;}
</style>
<rect class="st0" width="682.7" height="120.2"/>
<g>
	<g>
		<path class="st1" d="M389.5,46.1c0,0.1-0.1,0.2-0.2,0.2h-0.8c-0.1,0-0.2-0.1-0.3-0.2l-1-2.8h-4.8l-1,2.8c0,0.1-0.1,0.2-0.2,0.2
			h-0.8c-0.1,0-0.2-0.1-0.2-0.2c0-0.1,0-0.2,0.1-0.3l3.7-10.3c0-0.1,0.1-0.3,0.3-0.3h0.9c0.2,0,0.2,0.1,0.3,0.2l3.8,10.4
			C389.4,45.9,389.5,46,389.5,46.1z M386.9,42.2l-2-5.6l-2,5.6H386.9z"/>
		<path class="st1" d="M395.6,43.5v-4h-1.2c-0.2,0-0.3-0.1-0.3-0.3v-0.6c0-0.1,0.1-0.3,0.3-0.3c0.8,0,1.2-0.2,1.2-1.2v-0.6
			c0-0.1,0.1-0.3,0.3-0.3h0.6c0.2,0,0.3,0.1,0.3,0.3v1.8h1.8c0.1,0,0.3,0.1,0.3,0.3v0.6c0,0.2-0.1,0.3-0.3,0.3h-1.8v3.9
			c0,1.4,0.2,1.8,1.5,1.8h0.3c0.1,0,0.3,0.1,0.3,0.3V46c0,0.2-0.1,0.3-0.3,0.3h-0.5C396,46.2,395.6,45.3,395.6,43.5z"/>
		<path class="st1" d="M401,46v-7.3c0-0.1,0.1-0.3,0.3-0.3h0.6c0.2,0,0.3,0.1,0.3,0.3v1.1c0.3-0.7,1-1.3,2.2-1.3h0.2
			c0.2,0,0.3,0.1,0.3,0.3v0.6c0,0.2-0.1,0.3-0.3,0.3h-0.2c-1.6,0-2.2,1.3-2.2,2.6V46c0,0.2-0.1,0.3-0.3,0.3h-0.7
			C401.1,46.2,401,46.1,401,46z"/>
		<path class="st1" d="M408.4,36c0,0.5-0.3,0.8-0.8,0.8c-0.5,0-0.8-0.3-0.8-0.8c0-0.5,0.3-0.8,0.8-0.8
			C408.1,35.2,408.4,35.5,408.4,36z M407,46v-7.3c0-0.1,0.1-0.3,0.3-0.3h0.7c0.2,0,0.3,0.1,0.3,0.3V46c0,0.2-0.1,0.3-0.3,0.3h-0.7
			C407.1,46.2,407,46.1,407,46z"/>
		<path class="st1" d="M411,46V35.5c0-0.1,0.1-0.3,0.3-0.3h0.7c0.1,0,0.3,0.1,0.3,0.3V46c0,0.2-0.1,0.3-0.3,0.3h-0.7
			C411.2,46.2,411,46.1,411,46z"/>
		<path class="st1" d="M416.5,36c0,0.5-0.3,0.8-0.8,0.8c-0.5,0-0.8-0.3-0.8-0.8c0-0.5,0.3-0.8,0.8-0.8
			C416.1,35.2,416.5,35.5,416.5,36z M415.1,46v-7.3c0-0.1,0.1-0.3,0.3-0.3h0.7c0.2,0,0.3,0.1,0.3,0.3V46c0,0.2-0.1,0.3-0.3,0.3h-0.7
			C415.2,46.2,415.1,46.1,415.1,46z"/>
		<path class="st1" d="M419.1,46v-7.3c0-0.1,0.1-0.3,0.3-0.3h0.7c0.2,0,0.3,0.1,0.3,0.3v0.8c0.4-0.6,1-1.2,2.2-1.2
			c1.9,0,2.9,1.4,2.9,3.5V46c0,0.2-0.1,0.3-0.3,0.3h-0.7c-0.2,0-0.3-0.1-0.3-0.3v-4.3c0-1.5-0.8-2.4-2-2.4c-1.2,0-2,0.8-2,2.4V46
			c0,0.2-0.1,0.3-0.3,0.3h-0.7C419.2,46.2,419.1,46.1,419.1,46z"/>
		<path class="st1" d="M434.6,47.3c0,1.3-0.9,2.3-2.6,2.3h-1.7c-1.7,0-2.6-1-2.6-2.3c0-0.8,0.3-1.4,1-1.8c-0.6-0.3-0.8-0.7-0.8-1.3
			c0-0.7,0.4-1.2,1.2-1.4c-0.7-0.6-1-1.2-1-2c0-1.5,1.2-2.6,2.9-2.6h0.4c0.6,0,1.3,0.2,1.8,0.7v-1.2c0-0.2,0.1-0.3,0.3-0.3h0.6
			c0.2,0,0.3,0.1,0.3,0.3v3.2c0,1.5-1.1,2.6-2.9,2.6h-1.6c-0.5,0-0.9,0.2-0.9,0.7c0,0.5,0.3,0.7,1.1,0.7h2
			C433.7,44.9,434.6,46,434.6,47.3z M433.5,47.3c0-0.8-0.4-1.4-1.6-1.4h-1.4c-1.2,0-1.6,0.6-1.6,1.4s0.4,1.3,1.6,1.3h1.4
			C433,48.5,433.5,48,433.5,47.3z M429.1,40.8c0,0.9,0.7,1.7,1.8,1.7h0.3c1.1,0,1.8-0.7,1.8-1.7c0-0.9-0.6-1.7-1.8-1.7h-0.3
			C429.8,39.2,429.1,39.9,429.1,40.8z"/>
		<path class="st1" d="M442.6,38.6V46c0,0.2-0.1,0.3-0.3,0.3h-0.7c-0.2,0-0.3-0.1-0.3-0.3v-0.7c-0.3,0.6-1,1.1-2.2,1.1
			c-1.8,0-2.8-1.3-2.8-3.5v-4.3c0-0.1,0.1-0.3,0.3-0.3h0.7c0.2,0,0.3,0.1,0.3,0.3V43c0,1.5,0.6,2.4,1.8,2.4c1.2,0,2-0.8,2-2.4v-4.3
			c0-0.1,0.1-0.3,0.3-0.3h0.7C442.5,38.4,442.6,38.5,442.6,38.6z"/>
		<path class="st1" d="M450.6,46.2H450c-0.2,0-0.3-0.1-0.3-0.3v-0.7c-0.3,0.8-1.2,1.2-2.2,1.2h-0.3c-1.4,0-2.5-0.8-2.5-2.3
			c0-1.9,1.4-2.3,2.9-2.3h2.1v-0.5c0-1-0.2-2-1.8-2c-1.2,0-1.5,0.5-1.7,1.2c0,0.1-0.1,0.2-0.2,0.2h-0.7c-0.1,0-0.2-0.1-0.2-0.2
			c0,0,0-0.1,0-0.1c0.2-1,0.7-2.1,2.8-2.1c2.7,0,3,1.7,3,3.1V46C450.9,46.1,450.8,46.2,450.6,46.2z M445.9,44.1
			c0,0.9,0.7,1.3,1.6,1.3h0.3c1.7,0,2-1.2,2-2.1v-0.5h-2.1C446.4,42.7,445.9,43.1,445.9,44.1z"/>
		<path class="st1" d="M453.6,46V35.5c0-0.1,0.1-0.3,0.3-0.3h0.7c0.1,0,0.3,0.1,0.3,0.3V46c0,0.2-0.1,0.3-0.3,0.3h-0.7
			C453.7,46.2,453.6,46.1,453.6,46z"/>
		<path class="st1" d="M464.3,45.3c1,0,1.6-0.5,1.9-1.6c0-0.1,0.1-0.2,0.2-0.2h0.8c0.1,0,0.2,0.1,0.2,0.2c0,0,0,0.1,0,0.2
			c-0.2,1-1.1,2.5-3,2.5c-1.8,0-3.2-1.3-3.2-3.5v-1.2c0-2.2,1.4-3.5,3.2-3.5c1.9,0,2.8,1.4,3.1,2.6c0,0,0,0.1,0,0.1
			c0,0.1-0.1,0.2-0.2,0.2h-0.8c-0.1,0-0.2-0.1-0.2-0.2c-0.3-1-0.8-1.6-1.9-1.6c-1.2,0-2,0.9-2,2.4V43
			C462.3,44.5,463.2,45.3,464.3,45.3z"/>
		<path class="st1" d="M469.7,46v-7.3c0-0.1,0.1-0.3,0.3-0.3h0.6c0.2,0,0.3,0.1,0.3,0.3v1.1c0.3-0.7,1-1.3,2.2-1.3h0.2
			c0.2,0,0.3,0.1,0.3,0.3v0.6c0,0.2-0.1,0.3-0.3,0.3h-0.2c-1.6,0-2.2,1.3-2.2,2.6V46c0,0.2-0.1,0.3-0.3,0.3H470
			C469.8,46.2,469.7,46.1,469.7,46z"/>
		<path class="st1" d="M477.2,36c0,0.5-0.3,0.8-0.8,0.8s-0.8-0.3-0.8-0.8c0-0.5,0.3-0.8,0.8-0.8S477.2,35.5,477.2,36z M475.8,46
			v-7.3c0-0.1,0.1-0.3,0.3-0.3h0.7c0.2,0,0.3,0.1,0.3,0.3V46c0,0.2-0.1,0.3-0.3,0.3H476C475.9,46.2,475.8,46.1,475.8,46z"/>
		<path class="st1" d="M480.1,43.5v-4h-1.2c-0.2,0-0.3-0.1-0.3-0.3v-0.6c0-0.1,0.1-0.3,0.3-0.3c0.8,0,1.2-0.2,1.2-1.2v-0.6
			c0-0.1,0.1-0.3,0.3-0.3h0.6c0.2,0,0.3,0.1,0.3,0.3v1.8h1.8c0.1,0,0.3,0.1,0.3,0.3v0.6c0,0.2-0.1,0.3-0.3,0.3h-1.8v3.9
			c0,1.4,0.2,1.8,1.5,1.8h0.3c0.1,0,0.3,0.1,0.3,0.3V46c0,0.2-0.1,0.3-0.3,0.3h-0.5C480.4,46.2,480.1,45.3,480.1,43.5z"/>
		<path class="st1" d="M486.9,36c0,0.5-0.3,0.8-0.8,0.8s-0.8-0.3-0.8-0.8c0-0.5,0.3-0.8,0.8-0.8S486.9,35.5,486.9,36z M485.5,46
			v-7.3c0-0.1,0.1-0.3,0.3-0.3h0.7c0.2,0,0.3,0.1,0.3,0.3V46c0,0.2-0.1,0.3-0.3,0.3h-0.7C485.6,46.2,485.5,46.1,485.5,46z"/>
		<path class="st1" d="M492.3,45.3c1,0,1.6-0.5,1.9-1.6c0-0.1,0.1-0.2,0.2-0.2h0.8c0.1,0,0.2,0.1,0.2,0.2c0,0,0,0.1,0,0.2
			c-0.2,1-1.1,2.5-3,2.5c-1.8,0-3.2-1.3-3.2-3.5v-1.2c0-2.2,1.4-3.5,3.2-3.5c1.9,0,2.8,1.4,3.1,2.6c0,0,0,0.1,0,0.1
			c0,0.1-0.1,0.2-0.2,0.2h-0.8c-0.1,0-0.2-0.1-0.2-0.2c-0.3-1-0.8-1.6-1.9-1.6c-1.2,0-2,0.9-2,2.4V43
			C490.3,44.5,491.2,45.3,492.3,45.3z"/>
		<path class="st1" d="M503,46.2h-0.6c-0.2,0-0.3-0.1-0.3-0.3v-0.7c-0.3,0.8-1.2,1.2-2.2,1.2h-0.3c-1.4,0-2.5-0.8-2.5-2.3
			c0-1.9,1.4-2.3,2.9-2.3h2.1v-0.5c0-1-0.2-2-1.8-2c-1.2,0-1.5,0.5-1.7,1.2c0,0.1-0.1,0.2-0.2,0.2h-0.7c-0.1,0-0.2-0.1-0.2-0.2
			c0,0,0-0.1,0-0.1c0.2-1,0.7-2.1,2.8-2.1c2.7,0,3,1.7,3,3.1V46C503.3,46.1,503.2,46.2,503,46.2z M498.3,44.1c0,0.9,0.7,1.3,1.6,1.3
			h0.3c1.7,0,2-1.2,2-2.1v-0.5h-2.1C498.8,42.7,498.3,43.1,498.3,44.1z"/>
		<path class="st1" d="M506,46V35.5c0-0.1,0.1-0.3,0.3-0.3h0.7c0.1,0,0.3,0.1,0.3,0.3V46c0,0.2-0.1,0.3-0.3,0.3h-0.7
			C506.1,46.2,506,46.1,506,46z"/>
		<path class="st1" d="M516.8,45.3c0.6,0,1.4-0.1,1.9-1.3c0-0.1,0.1-0.2,0.3-0.2h0.7c0.1,0,0.2,0.1,0.2,0.2c0,0.1,0,0.1-0.1,0.2
			c-0.5,1.6-1.9,2.2-3,2.2c-1.8,0-3.2-1.3-3.2-3.5v-1.2c0-2.2,1.4-3.5,3.2-3.5c1.8,0,3.2,1.3,3.2,3.5v0.8c0,0.2-0.1,0.3-0.3,0.3h-5
			v0.3C514.7,44.5,515.6,45.3,516.8,45.3z M518.8,41.6c0-1.5-0.8-2.3-2-2.3c-1.2,0-2,0.8-2,2.3v0.2h4.1V41.6z"/>
		<path class="st1" d="M527.2,46v-0.7c-0.4,0.7-1.2,1.2-2.3,1.2c-1.7,0-3-1.2-3-3.5v-1.2c0-2.3,1.2-3.5,3-3.5c1.1,0,1.9,0.5,2.3,1.2
			v-3.9c0-0.1,0.1-0.3,0.3-0.3h0.7c0.2,0,0.3,0.1,0.3,0.3V46c0,0.2-0.1,0.3-0.3,0.3h-0.7C527.3,46.2,527.2,46.1,527.2,46z M527.2,43
			v-1.4c0-1.4-0.8-2.3-2-2.3c-1.3,0-2,0.9-2,2.4V43c0,1.5,0.8,2.4,2,2.4C526.4,45.3,527.2,44.4,527.2,43z"/>
		<path class="st1" d="M532.6,36c0,0.5-0.3,0.8-0.8,0.8S531,36.4,531,36c0-0.5,0.3-0.8,0.8-0.8S532.6,35.5,532.6,36z M531.2,46v-7.3
			c0-0.1,0.1-0.3,0.3-0.3h0.7c0.2,0,0.3,0.1,0.3,0.3V46c0,0.2-0.1,0.3-0.3,0.3h-0.7C531.3,46.2,531.2,46.1,531.2,46z"/>
		<path class="st1" d="M535.5,43.5v-4h-1.2c-0.2,0-0.3-0.1-0.3-0.3v-0.6c0-0.1,0.1-0.3,0.3-0.3c0.8,0,1.2-0.2,1.2-1.2v-0.6
			c0-0.1,0.1-0.3,0.3-0.3h0.6c0.2,0,0.3,0.1,0.3,0.3v1.8h1.8c0.1,0,0.3,0.1,0.3,0.3v0.6c0,0.2-0.1,0.3-0.3,0.3h-1.8v3.9
			c0,1.4,0.2,1.8,1.5,1.8h0.3c0.1,0,0.3,0.1,0.3,0.3V46c0,0.2-0.1,0.3-0.3,0.3H538C535.8,46.2,535.5,45.3,535.5,43.5z"/>
		<path class="st1" d="M542.3,36c0,0.5-0.3,0.8-0.8,0.8s-0.8-0.3-0.8-0.8c0-0.5,0.3-0.8,0.8-0.8S542.3,35.5,542.3,36z M540.9,46
			v-7.3c0-0.1,0.1-0.3,0.3-0.3h0.7c0.2,0,0.3,0.1,0.3,0.3V46c0,0.2-0.1,0.3-0.3,0.3h-0.7C541,46.2,540.9,46.1,540.9,46z"/>
		<path class="st1" d="M547.8,38.2c1.8,0,3.2,1.3,3.2,3.5v1.2c0,2.2-1.4,3.5-3.2,3.5c-1.8,0-3.2-1.3-3.2-3.5v-1.2
			C544.5,39.5,545.9,38.2,547.8,38.2z M547.8,45.3c1.2,0,2-0.8,2-2.4v-1.4c0-1.5-0.8-2.4-2-2.4c-1.2,0-2,0.8-2,2.4V43
			C545.7,44.5,546.6,45.3,547.8,45.3z"/>
		<path class="st1" d="M553.3,46v-7.3c0-0.1,0.1-0.3,0.3-0.3h0.7c0.2,0,0.3,0.1,0.3,0.3v0.8c0.4-0.6,1-1.2,2.2-1.2
			c1.9,0,2.9,1.4,2.9,3.5V46c0,0.2-0.1,0.3-0.3,0.3h-0.7c-0.2,0-0.3-0.1-0.3-0.3v-4.3c0-1.5-0.8-2.4-2-2.4c-1.2,0-2,0.8-2,2.4V46
			c0,0.2-0.1,0.3-0.3,0.3h-0.7C553.4,46.2,553.3,46.1,553.3,46z"/>
		<path class="st1" d="M569.1,38.2c1.8,0,3.2,1.3,3.2,3.5v1.2c0,2.2-1.4,3.5-3.2,3.5c-1.8,0-3.2-1.3-3.2-3.5v-1.2
			C565.9,39.5,567.3,38.2,569.1,38.2z M569.1,45.3c1.2,0,2-0.8,2-2.4v-1.4c0-1.5-0.9-2.4-2-2.4c-1.2,0-2,0.8-2,2.4V43
			C567.1,44.5,568,45.3,569.1,45.3z"/>
		<path class="st1" d="M577.9,39.4h-1.8V46c0,0.2-0.1,0.3-0.3,0.3h-0.7c-0.2,0-0.3-0.1-0.3-0.3v-6.5h-1.2c-0.2,0-0.3-0.1-0.3-0.3
			v-0.6c0-0.1,0.1-0.3,0.3-0.3h1.2v-0.2c0-2,0.5-2.9,2.7-2.9h0.3c0.1,0,0.3,0.1,0.3,0.3V36c0,0.2-0.1,0.3-0.3,0.3h-0.3
			c-1.3,0-1.5,0.3-1.5,1.8v0.2h1.8c0.1,0,0.3,0.1,0.3,0.3v0.6C578.2,39.3,578.1,39.4,577.9,39.4z"/>
		<path class="st1" d="M592.6,46.1c0,0.1-0.1,0.2-0.2,0.2h-0.8c-0.1,0-0.2-0.1-0.3-0.2l-1-2.8h-4.8l-1,2.8c0,0.1-0.1,0.2-0.2,0.2
			h-0.8c-0.1,0-0.2-0.1-0.2-0.2c0-0.1,0-0.2,0.1-0.3l3.7-10.3c0-0.1,0.1-0.3,0.3-0.3h0.9c0.2,0,0.2,0.1,0.3,0.2l3.8,10.4
			C592.6,45.9,592.6,46,592.6,46.1z M590,42.2l-2-5.6l-2,5.6H590z"/>
		<path class="st1" d="M600.4,38.5c0,0.1,0,0.2-0.1,0.3l-2.8,7.3c0,0.1-0.1,0.2-0.3,0.2h-0.8c-0.1,0-0.2,0-0.2-0.2l-2.9-7.3
			c0-0.1-0.1-0.2-0.1-0.3c0-0.1,0.1-0.2,0.2-0.2h0.8c0.1,0,0.2,0,0.3,0.2l2.4,6.3l2.3-6.3c0-0.1,0.1-0.2,0.3-0.2h0.8
			C600.3,38.4,600.4,38.4,600.4,38.5z"/>
		<path class="st1" d="M604.9,45.3c0.6,0,1.4-0.1,1.9-1.3c0-0.1,0.1-0.2,0.3-0.2h0.7c0.1,0,0.2,0.1,0.2,0.2c0,0.1,0,0.1-0.1,0.2
			c-0.5,1.6-1.9,2.2-3,2.2c-1.8,0-3.2-1.3-3.2-3.5v-1.2c0-2.2,1.4-3.5,3.2-3.5c1.8,0,3.2,1.3,3.2,3.5v0.8c0,0.2-0.1,0.3-0.3,0.3h-5
			v0.3C602.9,44.5,603.7,45.3,604.9,45.3z M606.9,41.6c0-1.5-0.8-2.3-2-2.3c-1.2,0-2,0.8-2,2.3v0.2h4.1V41.6z"/>
		<path class="st1" d="M610.5,46v-7.3c0-0.1,0.1-0.3,0.3-0.3h0.6c0.2,0,0.3,0.1,0.3,0.3v1.1c0.3-0.7,1-1.3,2.2-1.3h0.2
			c0.2,0,0.3,0.1,0.3,0.3v0.6c0,0.2-0.1,0.3-0.3,0.3h-0.2c-1.6,0-2.2,1.3-2.2,2.6V46c0,0.2-0.1,0.3-0.3,0.3h-0.7
			C610.6,46.2,610.5,46.1,610.5,46z"/>
		<path class="st1" d="M616.5,46v-7.3c0-0.1,0.1-0.3,0.3-0.3h0.6c0.2,0,0.3,0.1,0.3,0.3v1.1c0.3-0.7,1-1.3,2.2-1.3h0.2
			c0.2,0,0.3,0.1,0.3,0.3v0.6c0,0.2-0.1,0.3-0.3,0.3h-0.2c-1.6,0-2.2,1.3-2.2,2.6V46c0,0.2-0.1,0.3-0.3,0.3h-0.7
			C616.5,46.2,616.5,46.1,616.5,46z"/>
		<path class="st1" d="M625.1,38.2c1.8,0,3.2,1.3,3.2,3.5v1.2c0,2.2-1.4,3.5-3.2,3.5c-1.8,0-3.2-1.3-3.2-3.5v-1.2
			C621.9,39.5,623.3,38.2,625.1,38.2z M625.1,45.3c1.2,0,2-0.8,2-2.4v-1.4c0-1.5-0.8-2.4-2-2.4c-1.2,0-2,0.8-2,2.4V43
			C623.1,44.5,624,45.3,625.1,45.3z"/>
		<path class="st1" d="M633.6,45.3c0.6,0,1.4-0.1,1.9-1.3c0-0.1,0.1-0.2,0.3-0.2h0.7c0.1,0,0.2,0.1,0.2,0.2c0,0.1,0,0.1-0.1,0.2
			c-0.5,1.6-1.9,2.2-3,2.2c-1.8,0-3.2-1.3-3.2-3.5v-1.2c0-2.2,1.4-3.5,3.2-3.5c1.8,0,3.2,1.3,3.2,3.5v0.8c0,0.2-0.1,0.3-0.3,0.3h-5
			v0.3C631.5,44.5,632.4,45.3,633.6,45.3z M635.6,41.6c0-1.5-0.8-2.3-2-2.3c-1.2,0-2,0.8-2,2.3v0.2h4.1V41.6z"/>
		<path class="st1" d="M638.7,44.2c0,0,0-0.1,0-0.2c0-0.1,0.1-0.2,0.2-0.2h0.7c0.1,0,0.2,0.1,0.2,0.2c0.1,0.6,0.7,1.2,1.9,1.2
			c1,0,1.8-0.3,1.8-1.3c0-2-4.6-0.4-4.6-3.7c0-1.6,1.4-2.2,2.8-2.2c2.4,0,2.7,1.7,2.9,2.1c0,0,0,0.1,0,0.1c0,0.1-0.1,0.2-0.2,0.2
			h-0.7c-0.1,0-0.2-0.1-0.2-0.2c-0.1-0.5-0.4-1.2-1.8-1.2c-0.7,0-1.6,0.3-1.6,1.1c0,2.1,4.6,0.5,4.6,3.7c0,1.7-1.4,2.3-3,2.3
			C639.8,46.4,638.8,45.4,638.7,44.2z"/>
		<path class="st1" d="M384.6,65.7c1,0,1.6-0.5,1.9-1.6c0-0.1,0.1-0.2,0.2-0.2h0.8c0.1,0,0.2,0.1,0.2,0.2c0,0,0,0.1,0,0.2
			c-0.2,1-1.1,2.5-3,2.5c-1.8,0-3.2-1.3-3.2-3.5v-1.2c0-2.2,1.4-3.5,3.2-3.5c1.9,0,2.8,1.4,3.1,2.6c0,0,0,0.1,0,0.1
			c0,0.1-0.1,0.2-0.2,0.2h-0.8c-0.1,0-0.2-0.1-0.2-0.2c-0.3-1-0.8-1.6-1.9-1.6c-1.2,0-2,0.9-2,2.4v1.4
			C382.5,64.9,383.4,65.7,384.6,65.7z"/>
		<path class="st1" d="M392.8,58.6c1.8,0,3.2,1.3,3.2,3.5v1.2c0,2.2-1.4,3.5-3.2,3.5c-1.8,0-3.2-1.3-3.2-3.5v-1.2
			C389.6,59.9,391,58.6,392.8,58.6z M392.8,65.7c1.2,0,2-0.8,2-2.4V62c0-1.5-0.9-2.4-2-2.4c-1.2,0-2,0.8-2,2.4v1.4
			C390.8,64.9,391.7,65.7,392.8,65.7z"/>
		<path class="st1" d="M398.4,66.4V59c0-0.1,0.1-0.3,0.3-0.3h0.7c0.2,0,0.3,0.1,0.3,0.3v0.8c0.4-0.6,1-1.2,2.2-1.2
			c1.9,0,2.9,1.4,2.9,3.5v4.3c0,0.2-0.1,0.3-0.3,0.3h-0.7c-0.2,0-0.3-0.1-0.3-0.3V62c0-1.5-0.8-2.4-2-2.4c-1.2,0-2,0.8-2,2.4v4.3
			c0,0.2-0.1,0.3-0.3,0.3h-0.7C398.5,66.6,398.4,66.5,398.4,66.4z"/>
		<path class="st1" d="M412.3,66.4v-0.7c-0.4,0.7-1.2,1.2-2.3,1.2c-1.7,0-3-1.2-3-3.5v-1.2c0-2.3,1.2-3.5,3-3.5
			c1.1,0,1.9,0.5,2.3,1.2v-3.9c0-0.1,0.1-0.3,0.3-0.3h0.7c0.2,0,0.3,0.1,0.3,0.3v10.5c0,0.2-0.1,0.3-0.3,0.3h-0.7
			C412.4,66.6,412.3,66.5,412.3,66.4z M412.3,63.4v-1.4c0-1.4-0.8-2.3-2-2.3c-1.3,0-2,0.9-2,2.4v1.3c0,1.5,0.8,2.4,2,2.4
			C411.5,65.7,412.3,64.8,412.3,63.4z"/>
		<path class="st1" d="M422.3,59v7.3c0,0.2-0.1,0.3-0.3,0.3h-0.7c-0.2,0-0.3-0.1-0.3-0.3v-0.7c-0.3,0.6-1,1.1-2.2,1.1
			c-1.8,0-2.8-1.3-2.8-3.5V59c0-0.1,0.1-0.3,0.3-0.3h0.7c0.2,0,0.3,0.1,0.3,0.3v4.3c0,1.5,0.6,2.4,1.8,2.4c1.2,0,2-0.8,2-2.4V59
			c0-0.1,0.1-0.3,0.3-0.3h0.7C422.2,58.8,422.3,58.9,422.3,59z"/>
		<path class="st1" d="M427.9,65.7c1,0,1.6-0.5,1.9-1.6c0-0.1,0.1-0.2,0.2-0.2h0.8c0.1,0,0.2,0.1,0.2,0.2c0,0,0,0.1,0,0.2
			c-0.2,1-1.1,2.5-3,2.5c-1.8,0-3.2-1.3-3.2-3.5v-1.2c0-2.2,1.4-3.5,3.2-3.5c1.9,0,2.8,1.4,3.1,2.6c0,0,0,0.1,0,0.1
			c0,0.1-0.1,0.2-0.2,0.2H430c-0.1,0-0.2-0.1-0.2-0.2c-0.3-1-0.8-1.6-1.9-1.6c-1.2,0-2,0.9-2,2.4v1.4
			C425.8,64.9,426.7,65.7,427.9,65.7z"/>
		<path class="st1" d="M433.6,63.9v-4h-1.2c-0.2,0-0.3-0.1-0.3-0.3V59c0-0.1,0.1-0.3,0.3-0.3c0.8,0,1.2-0.2,1.2-1.2V57
			c0-0.1,0.1-0.3,0.3-0.3h0.6c0.2,0,0.3,0.1,0.3,0.3v1.8h1.8c0.1,0,0.3,0.1,0.3,0.3v0.6c0,0.2-0.1,0.3-0.3,0.3h-1.8v3.9
			c0,1.4,0.2,1.8,1.5,1.8h0.3c0.1,0,0.3,0.1,0.3,0.3v0.6c0,0.2-0.1,0.3-0.3,0.3h-0.5C433.9,66.6,433.6,65.7,433.6,63.9z"/>
		<path class="st1" d="M441.6,65.7c0.6,0,1.4-0.1,1.9-1.3c0-0.1,0.1-0.2,0.3-0.2h0.7c0.1,0,0.2,0.1,0.2,0.2c0,0.1,0,0.1-0.1,0.2
			c-0.5,1.6-1.9,2.2-3,2.2c-1.8,0-3.2-1.3-3.2-3.5v-1.2c0-2.2,1.4-3.5,3.2-3.5c1.8,0,3.2,1.3,3.2,3.5v0.8c0,0.2-0.1,0.3-0.3,0.3h-5
			v0.3C439.6,64.9,440.4,65.7,441.6,65.7z M443.6,62c0-1.5-0.9-2.3-2-2.3c-1.2,0-2,0.8-2,2.3v0.2h4.1V62z"/>
		<path class="st1" d="M452,66.4v-0.7c-0.4,0.7-1.2,1.2-2.3,1.2c-1.7,0-3-1.2-3-3.5v-1.2c0-2.3,1.2-3.5,3-3.5c1.1,0,1.9,0.5,2.3,1.2
			v-3.9c0-0.1,0.1-0.3,0.3-0.3h0.7c0.2,0,0.3,0.1,0.3,0.3v10.5c0,0.2-0.1,0.3-0.3,0.3h-0.7C452.1,66.6,452,66.5,452,66.4z M452,63.4
			v-1.4c0-1.4-0.8-2.3-2-2.3c-1.3,0-2,0.9-2,2.4v1.3c0,1.5,0.8,2.4,2,2.4C451.2,65.7,452,64.8,452,63.4z"/>
		<path class="st1" d="M460.9,66.6h-0.7c-0.2,0-0.3-0.1-0.3-0.3V55.9c0-0.1,0.1-0.3,0.3-0.3h0.7c0.1,0,0.3,0.1,0.3,0.3v3.9
			c0.4-0.7,1.1-1.2,2.3-1.2c1.7,0,3,1.2,3,3.5v1.2c0,2.3-1.2,3.5-3,3.5c-1.1,0-1.8-0.5-2.3-1.2v0.7C461.1,66.5,461,66.6,460.9,66.6z
			 M463.2,65.7c1.2,0,2-0.9,2-2.4V62c0-1.5-0.8-2.4-2-2.4c-1.2,0-2,0.9-2,2.3v1.4C461.1,64.8,461.9,65.7,463.2,65.7z"/>
		<path class="st1" d="M474.9,58.9c0,0.1,0,0.2-0.1,0.3l-3.3,8.5c-0.6,1.4-1,2.1-2.6,2.1h-0.7c-0.1,0-0.3-0.1-0.3-0.3v-0.6
			c0-0.2,0.1-0.3,0.3-0.3h0.6c1,0,1.4-0.5,1.6-1.2l0.3-0.9l-2.9-7.3c-0.1-0.1-0.1-0.2-0.1-0.3c0-0.1,0.1-0.2,0.2-0.2h0.8
			c0.1,0,0.2,0.1,0.3,0.2l2.4,6.1l2.3-6.1c0.1-0.2,0.2-0.2,0.3-0.2h0.8C474.8,58.8,474.9,58.8,474.9,58.9z"/>
		<path class="st1" d="M480.9,63.9v-4h-1.2c-0.2,0-0.3-0.1-0.3-0.3V59c0-0.1,0.1-0.3,0.3-0.3c0.8,0,1.2-0.2,1.2-1.2V57
			c0-0.1,0.1-0.3,0.3-0.3h0.6c0.2,0,0.3,0.1,0.3,0.3v1.8h1.8c0.1,0,0.3,0.1,0.3,0.3v0.6c0,0.2-0.1,0.3-0.3,0.3h-1.8v3.9
			c0,1.4,0.2,1.8,1.5,1.8h0.3c0.1,0,0.3,0.1,0.3,0.3v0.6c0,0.2-0.1,0.3-0.3,0.3h-0.5C481.2,66.6,480.9,65.7,480.9,63.9z"/>
		<path class="st1" d="M486.2,66.4V55.9c0-0.1,0.1-0.3,0.3-0.3h0.7c0.1,0,0.3,0.1,0.3,0.3v3.9c0.4-0.6,1-1.2,2.2-1.2
			c1.9,0,2.9,1.4,2.9,3.5v4.3c0,0.2-0.1,0.3-0.3,0.3h-0.7c-0.2,0-0.3-0.1-0.3-0.3V62c0-1.5-0.8-2.4-2-2.4c-1.2,0-2,0.9-2,2.4v4.3
			c0,0.2-0.1,0.3-0.3,0.3h-0.7C486.4,66.6,486.2,66.5,486.2,66.4z"/>
		<path class="st1" d="M498.1,65.7c0.6,0,1.4-0.1,1.9-1.3c0-0.1,0.1-0.2,0.3-0.2h0.7c0.1,0,0.2,0.1,0.2,0.2c0,0.1,0,0.1-0.1,0.2
			c-0.5,1.6-1.9,2.2-3,2.2c-1.8,0-3.2-1.3-3.2-3.5v-1.2c0-2.2,1.4-3.5,3.2-3.5c1.8,0,3.2,1.3,3.2,3.5v0.8c0,0.2-0.1,0.3-0.3,0.3h-5
			v0.3C496.1,64.9,497,65.7,498.1,65.7z M500.1,62c0-1.5-0.8-2.3-2-2.3c-1.2,0-2,0.8-2,2.3v0.2h4.1V62z"/>
		<path class="st1" d="M506.7,56.5v-0.6c0-0.1,0.1-0.3,0.3-0.3h7.8c0.2,0,0.3,0.1,0.3,0.3v0.6c0,0.1-0.1,0.3-0.3,0.3h-3.3v9.6
			c0,0.2-0.1,0.3-0.3,0.3h-0.7c-0.2,0-0.3-0.1-0.3-0.3v-9.6H507C506.8,56.7,506.7,56.6,506.7,56.5z"/>
		<path class="st1" d="M523.6,66.4v-4.8h-5.3v4.8c0,0.2-0.1,0.3-0.3,0.3h-0.7c-0.2,0-0.3-0.1-0.3-0.3V55.9c0-0.1,0.1-0.3,0.3-0.3
			h0.7c0.2,0,0.3,0.1,0.3,0.3v4.5h5.3v-4.5c0-0.1,0.1-0.3,0.3-0.3h0.7c0.2,0,0.3,0.1,0.3,0.3v10.5c0,0.2-0.1,0.3-0.3,0.3h-0.7
			C523.7,66.6,523.6,66.5,523.6,66.4z"/>
		<path class="st1" d="M531.5,55.5c2.3,0,4.1,1.7,4.1,4.3v2.7c0,2.6-1.8,4.3-4,4.3s-4-1.7-4-4.3v-2.7
			C527.4,57.1,529.2,55.5,531.5,55.5z M531.5,65.7c1.6,0,2.8-1.2,2.8-3.2v-2.7c0-2-1.3-3.2-2.8-3.2c-1.6,0-2.8,1.2-2.8,3.2v2.7
			C528.6,64.5,529.9,65.7,531.5,65.7z"/>
		<path class="st1" d="M548.6,55.9v10.5c0,0.2-0.1,0.3-0.3,0.3h-0.6c-0.2,0-0.3-0.1-0.3-0.3v-9.1l-3.5,9.1c-0.1,0.1-0.1,0.2-0.3,0.2
			h-0.6c-0.2,0-0.2-0.1-0.3-0.2l-3.5-9.2v9.1c0,0.2-0.1,0.3-0.3,0.3h-0.6c-0.2,0-0.3-0.1-0.3-0.3V55.9c0-0.1,0.1-0.3,0.3-0.3h1.3
			c0.1,0,0.2,0.1,0.2,0.2l3.5,9.2l3.5-9.2c0-0.1,0.1-0.2,0.2-0.2h1.2C548.5,55.6,548.6,55.7,548.6,55.9z"/>
		<path class="st1" d="M559.9,66.5c0,0.1-0.1,0.2-0.2,0.2h-0.8c-0.1,0-0.2-0.1-0.3-0.2l-1-2.8h-4.8l-1,2.8c0,0.1-0.1,0.2-0.2,0.2
			h-0.8c-0.1,0-0.2-0.1-0.2-0.2c0-0.1,0-0.2,0.1-0.3l3.7-10.3c0-0.1,0.1-0.3,0.3-0.3h0.9c0.2,0,0.2,0.1,0.3,0.2l3.8,10.4
			C559.8,66.3,559.9,66.4,559.9,66.5z M557.2,62.6l-2-5.6l-2,5.6H557.2z"/>
		<path class="st1" d="M567.5,58.3c-0.1-0.9-0.5-1.8-2.4-1.8c-1.4,0-2.4,0.4-2.4,1.8c0,3.2,6.3,1.2,6.3,5.4c0,2.3-1.9,3.1-3.8,3.1
			c-3,0-4-2.1-4-3.4c0-0.2,0.1-0.3,0.3-0.3h0.7c0.2,0,0.3,0.1,0.3,0.3c0,0.7,0.5,2.3,2.8,2.3c1.5,0,2.6-0.5,2.6-2
			c0-2.9-6.3-1-6.3-5.4c0-2,1.5-2.9,3.6-2.9c2.8,0,3.5,1.7,3.5,2.9c0,0.2-0.1,0.3-0.3,0.3h-0.7C567.6,58.6,567.5,58.5,567.5,58.3z"
			/>
		<path class="st1" d="M575.2,62.5h-3.9c-0.2,0-0.3-0.1-0.3-0.3v-0.6c0-0.2,0.1-0.3,0.3-0.3h3.9c0.2,0,0.3,0.1,0.3,0.3v0.6
			C575.5,62.4,575.4,62.5,575.2,62.5z"/>
		<path class="st1" d="M578.1,66.4V55.9c0-0.1,0.1-0.3,0.3-0.3h0.7c0.2,0,0.3,0.1,0.3,0.3v10.5c0,0.2-0.1,0.3-0.3,0.3h-0.7
			C578.2,66.6,578.1,66.5,578.1,66.4z"/>
		<path class="st1" d="M590.2,55.9v10.5c0,0.2-0.1,0.3-0.3,0.3h-0.5c-0.1,0-0.3,0-0.4-0.3l-5.5-8.7v8.8c0,0.2-0.1,0.3-0.3,0.3h-0.6
			c-0.2,0-0.3-0.1-0.3-0.3V55.9c0-0.1,0.1-0.3,0.3-0.3h0.8c0.2,0,0.3,0.1,0.3,0.2l5.4,8.5v-8.5c0-0.1,0.1-0.3,0.3-0.3h0.6
			C590.1,55.6,590.2,55.7,590.2,55.9z"/>
		<path class="st1" d="M599,58.3c-0.1-0.9-0.5-1.8-2.4-1.8c-1.4,0-2.4,0.4-2.4,1.8c0,3.2,6.3,1.2,6.3,5.4c0,2.3-1.9,3.1-3.8,3.1
			c-3,0-4-2.1-4-3.4c0-0.2,0.1-0.3,0.3-0.3h0.7c0.2,0,0.3,0.1,0.3,0.3c0,0.7,0.5,2.3,2.8,2.3c1.5,0,2.6-0.5,2.6-2
			c0-2.9-6.3-1-6.3-5.4c0-2,1.5-2.9,3.6-2.9c2.8,0,3.5,1.7,3.5,2.9c0,0.2-0.1,0.3-0.3,0.3h-0.7C599.1,58.6,599,58.5,599,58.3z"/>
		<path class="st1" d="M601.7,56.5v-0.6c0-0.1,0.1-0.3,0.3-0.3h7.8c0.2,0,0.3,0.1,0.3,0.3v0.6c0,0.1-0.1,0.3-0.3,0.3h-3.3v9.6
			c0,0.2-0.1,0.3-0.3,0.3h-0.7c-0.2,0-0.3-0.1-0.3-0.3v-9.6H602C601.8,56.7,601.7,56.6,601.7,56.5z"/>
		<path class="st1" d="M612.1,66.4V55.9c0-0.1,0.1-0.3,0.3-0.3h0.7c0.2,0,0.3,0.1,0.3,0.3v10.5c0,0.2-0.1,0.3-0.3,0.3h-0.7
			C612.2,66.6,612.1,66.5,612.1,66.4z"/>
		<path class="st1" d="M615.2,56.5v-0.6c0-0.1,0.1-0.3,0.3-0.3h7.8c0.2,0,0.3,0.1,0.3,0.3v0.6c0,0.1-0.1,0.3-0.3,0.3H620v9.6
			c0,0.2-0.1,0.3-0.3,0.3h-0.7c-0.2,0-0.3-0.1-0.3-0.3v-9.6h-3.3C615.4,56.7,615.2,56.6,615.2,56.5z"/>
		<path class="st1" d="M632.2,55.6h0.7c0.2,0,0.3,0.1,0.3,0.3v6.7c0,2.6-1.6,4.3-3.9,4.3s-3.9-1.6-3.9-4.3v-6.7
			c0-0.1,0.1-0.3,0.3-0.3h0.7c0.2,0,0.3,0.1,0.3,0.3v6.7c0,2,1.1,3.1,2.7,3.1c1.5,0,2.7-1.1,2.7-3.1v-6.7
			C632,55.7,632.1,55.6,632.2,55.6z"/>
		<path class="st1" d="M635,56.5v-0.6c0-0.1,0.1-0.3,0.3-0.3h7.8c0.2,0,0.3,0.1,0.3,0.3v0.6c0,0.1-0.1,0.3-0.3,0.3h-3.3v9.6
			c0,0.2-0.1,0.3-0.3,0.3h-0.7c-0.2,0-0.3-0.1-0.3-0.3v-9.6h-3.3C635.1,56.7,635,56.6,635,56.5z"/>
		<path class="st1" d="M651.9,56.7h-5.3v3.8h4.3c0.1,0,0.3,0.1,0.3,0.3v0.6c0,0.2-0.1,0.3-0.3,0.3h-4.3v3.9h5.3
			c0.2,0,0.3,0.1,0.3,0.3v0.6c0,0.2-0.1,0.3-0.3,0.3h-6.3c-0.2,0-0.3-0.1-0.3-0.3V55.9c0-0.1,0.1-0.3,0.3-0.3h6.3
			c0.2,0,0.3,0.1,0.3,0.3v0.6C652.1,56.6,652,56.7,651.9,56.7z"/>
		<path class="st1" d="M387.1,87h-0.6c-0.2,0-0.3-0.1-0.3-0.3V86c-0.3,0.8-1.2,1.2-2.2,1.2h-0.3c-1.4,0-2.5-0.8-2.5-2.3
			c0-1.9,1.4-2.3,2.9-2.3h2.1V82c0-1-0.2-2-1.8-2c-1.2,0-1.5,0.5-1.7,1.2c0,0.1-0.1,0.2-0.2,0.2h-0.7c-0.1,0-0.2-0.1-0.2-0.2
			c0,0,0-0.1,0-0.1c0.2-1,0.7-2.1,2.8-2.1c2.7,0,3,1.7,3,3.1v4.7C387.3,86.9,387.2,87,387.1,87z M382.3,84.9c0,0.9,0.7,1.3,1.6,1.3
			h0.3c1.7,0,2-1.2,2-2.1v-0.5h-2.1C382.8,83.5,382.3,83.9,382.3,84.9z"/>
		<path class="st1" d="M390.3,84.3v-4h-1.2c-0.2,0-0.3-0.1-0.3-0.3v-0.6c0-0.1,0.1-0.3,0.3-0.3c0.8,0,1.2-0.2,1.2-1.2v-0.6
			c0-0.1,0.1-0.3,0.3-0.3h0.6c0.2,0,0.3,0.1,0.3,0.3v1.8h1.8c0.1,0,0.3,0.1,0.3,0.3V80c0,0.2-0.1,0.3-0.3,0.3h-1.8v3.9
			c0,1.4,0.2,1.8,1.5,1.8h0.3c0.1,0,0.3,0.1,0.3,0.3v0.6c0,0.2-0.1,0.3-0.3,0.3h-0.5C390.6,87,390.3,86.1,390.3,84.3z"/>
		<path class="st1" d="M399.8,84.3v-4h-1.2c-0.2,0-0.3-0.1-0.3-0.3v-0.6c0-0.1,0.1-0.3,0.3-0.3c0.8,0,1.2-0.2,1.2-1.2v-0.6
			c0-0.1,0.1-0.3,0.3-0.3h0.6c0.2,0,0.3,0.1,0.3,0.3v1.8h1.8c0.1,0,0.3,0.1,0.3,0.3V80c0,0.2-0.1,0.3-0.3,0.3H401v3.9
			c0,1.4,0.2,1.8,1.5,1.8h0.3c0.1,0,0.3,0.1,0.3,0.3v0.6c0,0.2-0.1,0.3-0.3,0.3h-0.5C400.2,87,399.8,86.1,399.8,84.3z"/>
		<path class="st1" d="M405.2,86.8V76.3c0-0.1,0.1-0.3,0.3-0.3h0.7c0.1,0,0.3,0.1,0.3,0.3v3.9c0.4-0.6,1-1.2,2.2-1.2
			c1.9,0,2.9,1.4,2.9,3.5v4.3c0,0.2-0.1,0.3-0.3,0.3h-0.7c-0.2,0-0.3-0.1-0.3-0.3v-4.3c0-1.5-0.8-2.4-2-2.4c-1.2,0-2,0.9-2,2.4v4.3
			c0,0.2-0.1,0.3-0.3,0.3h-0.7C405.3,87,405.2,86.9,405.2,86.8z"/>
		<path class="st1" d="M417.1,86.1c0.6,0,1.4-0.1,1.9-1.3c0-0.1,0.1-0.2,0.3-0.2h0.7c0.1,0,0.2,0.1,0.2,0.2c0,0.1,0,0.1-0.1,0.2
			c-0.5,1.6-1.9,2.2-3,2.2c-1.8,0-3.2-1.3-3.2-3.5v-1.2c0-2.2,1.4-3.5,3.2-3.5c1.8,0,3.2,1.3,3.2,3.5v0.8c0,0.2-0.1,0.3-0.3,0.3h-5
			v0.3C415,85.3,415.9,86.1,417.1,86.1z M419.1,82.4c0-1.5-0.9-2.3-2-2.3c-1.2,0-2,0.8-2,2.3v0.2h4.1V82.4z"/>
		<path class="st1" d="M433.4,76h0.7c0.2,0,0.3,0.1,0.3,0.3v6.7c0,2.6-1.6,4.3-3.9,4.3s-3.9-1.6-3.9-4.3v-6.7c0-0.1,0.1-0.3,0.3-0.3
			h0.7c0.2,0,0.3,0.1,0.3,0.3v6.7c0,2,1.1,3.1,2.7,3.1c1.5,0,2.7-1.1,2.7-3.1v-6.7C433.1,76.1,433.2,76,433.4,76z"/>
		<path class="st1" d="M437,86.8v-7.3c0-0.1,0.1-0.3,0.3-0.3h0.7c0.2,0,0.3,0.1,0.3,0.3v0.8c0.4-0.6,1-1.2,2.2-1.2
			c1.9,0,2.9,1.4,2.9,3.5v4.3c0,0.2-0.1,0.3-0.3,0.3h-0.7c-0.2,0-0.3-0.1-0.3-0.3v-4.3c0-1.5-0.8-2.4-2-2.4c-1.2,0-2,0.8-2,2.4v4.3
			c0,0.2-0.1,0.3-0.3,0.3h-0.7C437.1,87,437,86.9,437,86.8z"/>
		<path class="st1" d="M447.5,76.8c0,0.5-0.3,0.8-0.8,0.8s-0.8-0.3-0.8-0.8c0-0.5,0.3-0.8,0.8-0.8S447.5,76.3,447.5,76.8z
			 M446.1,86.8v-7.3c0-0.1,0.1-0.3,0.3-0.3h0.7c0.2,0,0.3,0.1,0.3,0.3v7.3c0,0.2-0.1,0.3-0.3,0.3h-0.7
			C446.2,87,446.1,86.9,446.1,86.8z"/>
		<path class="st1" d="M456.3,79.3c0,0.1,0,0.2-0.1,0.3l-2.8,7.3c0,0.1-0.1,0.2-0.3,0.2h-0.8c-0.1,0-0.2,0-0.2-0.2l-2.9-7.3
			c0-0.1-0.1-0.2-0.1-0.3c0-0.1,0.1-0.2,0.2-0.2h0.8c0.1,0,0.2,0,0.3,0.2l2.4,6.3l2.3-6.3c0-0.1,0.1-0.2,0.3-0.2h0.8
			C456.2,79.2,456.3,79.2,456.3,79.3z"/>
		<path class="st1" d="M460.8,86.1c0.6,0,1.4-0.1,1.9-1.3c0-0.1,0.1-0.2,0.3-0.2h0.7c0.1,0,0.2,0.1,0.2,0.2c0,0.1,0,0.1-0.1,0.2
			c-0.5,1.6-1.9,2.2-3,2.2c-1.8,0-3.2-1.3-3.2-3.5v-1.2c0-2.2,1.4-3.5,3.2-3.5c1.8,0,3.2,1.3,3.2,3.5v0.8c0,0.2-0.1,0.3-0.3,0.3h-5
			v0.3C458.8,85.3,459.7,86.1,460.8,86.1z M462.8,82.4c0-1.5-0.8-2.3-2-2.3c-1.2,0-2,0.8-2,2.3v0.2h4.1V82.4z"/>
		<path class="st1" d="M466.4,86.8v-7.3c0-0.1,0.1-0.3,0.3-0.3h0.6c0.2,0,0.3,0.1,0.3,0.3v1.1c0.3-0.7,1-1.3,2.2-1.3h0.2
			c0.2,0,0.3,0.1,0.3,0.3v0.6c0,0.2-0.1,0.3-0.3,0.3h-0.2c-1.6,0-2.2,1.3-2.2,2.6v3.8c0,0.2-0.1,0.3-0.3,0.3h-0.7
			C466.5,87,466.4,86.9,466.4,86.8z"/>
		<path class="st1" d="M471.9,85c0,0,0-0.1,0-0.2c0-0.1,0.1-0.2,0.2-0.2h0.7c0.1,0,0.2,0.1,0.2,0.2c0.1,0.6,0.7,1.2,1.9,1.2
			c1,0,1.8-0.3,1.8-1.3c0-2-4.6-0.4-4.6-3.7c0-1.6,1.4-2.2,2.8-2.2c2.4,0,2.7,1.7,2.9,2.1c0,0,0,0.1,0,0.1c0,0.1-0.1,0.2-0.2,0.2
			h-0.7c-0.1,0-0.2-0.1-0.2-0.2c-0.1-0.5-0.4-1.2-1.8-1.2c-0.7,0-1.6,0.3-1.6,1.1c0,2.1,4.6,0.5,4.6,3.7c0,1.7-1.4,2.3-3,2.3
			C473,87.2,472,86.2,471.9,85z"/>
		<path class="st1" d="M481.6,76.8c0,0.5-0.3,0.8-0.8,0.8s-0.8-0.3-0.8-0.8c0-0.5,0.3-0.8,0.8-0.8S481.6,76.3,481.6,76.8z
			 M480.2,86.8v-7.3c0-0.1,0.1-0.3,0.3-0.3h0.7c0.2,0,0.3,0.1,0.3,0.3v7.3c0,0.2-0.1,0.3-0.3,0.3h-0.7
			C480.3,87,480.2,86.9,480.2,86.8z"/>
		<path class="st1" d="M484.4,84.3v-4h-1.2c-0.2,0-0.3-0.1-0.3-0.3v-0.6c0-0.1,0.1-0.3,0.3-0.3c0.8,0,1.2-0.2,1.2-1.2v-0.6
			c0-0.1,0.1-0.3,0.3-0.3h0.6c0.2,0,0.3,0.1,0.3,0.3v1.8h1.8c0.1,0,0.3,0.1,0.3,0.3V80c0,0.2-0.1,0.3-0.3,0.3h-1.8v3.9
			c0,1.4,0.2,1.8,1.5,1.8h0.3c0.1,0,0.3,0.1,0.3,0.3v0.6c0,0.2-0.1,0.3-0.3,0.3H487C484.8,87,484.4,86.1,484.4,84.3z"/>
		<path class="st1" d="M496.1,79.3c0,0.1,0,0.2-0.1,0.3l-3.3,8.5c-0.6,1.4-1,2.1-2.6,2.1h-0.7c-0.1,0-0.3-0.1-0.3-0.3v-0.6
			c0-0.2,0.1-0.3,0.3-0.3h0.6c1,0,1.4-0.5,1.6-1.2l0.3-0.9l-2.9-7.3c-0.1-0.1-0.1-0.2-0.1-0.3c0-0.1,0.1-0.2,0.2-0.2h0.8
			c0.1,0,0.2,0.1,0.3,0.2l2.4,6.1l2.3-6.1c0.1-0.2,0.2-0.2,0.3-0.2h0.8C496,79.2,496.1,79.2,496.1,79.3z"/>
		<path class="st1" d="M504.7,79c1.8,0,3.2,1.3,3.2,3.5v1.2c0,2.2-1.4,3.5-3.2,3.5c-1.8,0-3.2-1.3-3.2-3.5v-1.2
			C501.4,80.3,502.8,79,504.7,79z M504.7,86.1c1.2,0,2-0.8,2-2.4v-1.4c0-1.5-0.9-2.4-2-2.4c-1.2,0-2,0.8-2,2.4v1.4
			C502.6,85.3,503.5,86.1,504.7,86.1z"/>
		<path class="st1" d="M513.5,80.2h-1.8v6.5c0,0.2-0.1,0.3-0.3,0.3h-0.7c-0.2,0-0.3-0.1-0.3-0.3v-6.5h-1.2c-0.2,0-0.3-0.1-0.3-0.3
			v-0.6c0-0.1,0.1-0.3,0.3-0.3h1.2v-0.2c0-2,0.5-2.9,2.7-2.9h0.3c0.1,0,0.3,0.1,0.3,0.3v0.6c0,0.2-0.1,0.3-0.3,0.3h-0.3
			c-1.3,0-1.5,0.3-1.5,1.8v0.2h1.8c0.1,0,0.3,0.1,0.3,0.3V80C513.7,80.1,513.6,80.2,513.5,80.2z"/>
		<path class="st1" d="M527.6,83.5c-0.1,2-1.7,3.7-4,3.7s-4-1.7-4-4.3v-2.7c0-2.6,1.7-4.3,4-4.3s3.7,1.6,4,3.5
			c0,0.2-0.1,0.2-0.2,0.2h-0.8c-0.1,0-0.2,0-0.2-0.2c-0.2-1.3-1.1-2.4-2.7-2.4c-1.6,0-2.8,1.2-2.8,3.2v2.7c0,2,1.3,3.2,2.9,3.2
			c1.6,0,2.6-1.1,2.7-2.6c0-0.1,0.1-0.2,0.2-0.2h0.9C527.5,83.3,527.6,83.4,527.6,83.5z"/>
		<path class="st1" d="M532.8,79c1.8,0,3.2,1.3,3.2,3.5v1.2c0,2.2-1.4,3.5-3.2,3.5c-1.8,0-3.2-1.3-3.2-3.5v-1.2
			C529.6,80.3,531,79,532.8,79z M532.8,86.1c1.2,0,2-0.8,2-2.4v-1.4c0-1.5-0.8-2.4-2-2.4c-1.2,0-2,0.8-2,2.4v1.4
			C530.8,85.3,531.6,86.1,532.8,86.1z"/>
		<path class="st1" d="M538.4,86.8V76.3c0-0.1,0.1-0.3,0.3-0.3h0.7c0.1,0,0.3,0.1,0.3,0.3v10.5c0,0.2-0.1,0.3-0.3,0.3h-0.7
			C538.5,87,538.4,86.9,538.4,86.8z"/>
		<path class="st1" d="M545.2,79c1.8,0,3.2,1.3,3.2,3.5v1.2c0,2.2-1.4,3.5-3.2,3.5c-1.8,0-3.2-1.3-3.2-3.5v-1.2
			C542,80.3,543.4,79,545.2,79z M545.2,86.1c1.2,0,2-0.8,2-2.4v-1.4c0-1.5-0.9-2.4-2-2.4c-1.2,0-2,0.8-2,2.4v1.4
			C543.2,85.3,544,86.1,545.2,86.1z"/>
		<path class="st1" d="M557.3,88.1c0,1.3-0.9,2.3-2.6,2.3h-1.7c-1.7,0-2.6-1-2.6-2.3c0-0.8,0.3-1.4,1-1.8c-0.6-0.3-0.8-0.7-0.8-1.3
			c0-0.7,0.4-1.2,1.2-1.4c-0.7-0.6-1-1.2-1-2c0-1.5,1.2-2.6,2.9-2.6h0.4c0.6,0,1.3,0.2,1.8,0.7v-1.2c0-0.2,0.1-0.3,0.3-0.3h0.6
			c0.2,0,0.3,0.1,0.3,0.3v3.2c0,1.5-1.1,2.6-2.9,2.6h-1.6c-0.5,0-0.9,0.2-0.9,0.7c0,0.5,0.3,0.7,1.1,0.7h2
			C556.4,85.7,557.3,86.8,557.3,88.1z M556.1,88.1c0-0.8-0.4-1.4-1.6-1.4H553c-1.2,0-1.6,0.6-1.6,1.4s0.4,1.3,1.6,1.3h1.4
			C555.7,89.3,556.1,88.8,556.1,88.1z M551.8,81.6c0,0.9,0.7,1.7,1.8,1.7h0.3c1.1,0,1.8-0.7,1.8-1.7c0-0.9-0.6-1.7-1.8-1.7h-0.3
			C552.4,80,551.8,80.7,551.8,81.6z"/>
		<path class="st1" d="M559.2,86.8v-7.3c0-0.1,0.1-0.3,0.3-0.3h0.7c0.2,0,0.3,0.1,0.3,0.3v0.8c0.4-0.6,1-1.2,2.2-1.2
			c1.9,0,2.9,1.4,2.9,3.5v4.3c0,0.2-0.1,0.3-0.3,0.3h-0.7c-0.2,0-0.3-0.1-0.3-0.3v-4.3c0-1.5-0.8-2.4-2-2.4c-1.2,0-2,0.8-2,2.4v4.3
			c0,0.2-0.1,0.3-0.3,0.3h-0.7C559.3,87,559.2,86.9,559.2,86.8z"/>
		<path class="st1" d="M571.1,86.1c0.6,0,1.4-0.1,1.9-1.3c0-0.1,0.1-0.2,0.3-0.2h0.7c0.1,0,0.2,0.1,0.2,0.2c0,0.1,0,0.1-0.1,0.2
			c-0.5,1.6-1.9,2.2-3,2.2c-1.8,0-3.2-1.3-3.2-3.5v-1.2c0-2.2,1.4-3.5,3.2-3.5c1.8,0,3.2,1.3,3.2,3.5v0.8c0,0.2-0.1,0.3-0.3,0.3h-5
			v0.3C569,85.3,569.9,86.1,571.1,86.1z M573.1,82.4c0-1.5-0.8-2.3-2-2.3c-1.2,0-2,0.8-2,2.3v0.2h4.1V82.4z"/>
	</g>
	<g>
		<g>
			<path class="st1" d="M51.8,56.5c0,0.2-0.1,0.3-0.3,0.3h-1.2c-0.3,0-0.4-0.1-0.5-0.3L47.1,49H35l-2.7,7.5
				c-0.1,0.3-0.3,0.3-0.4,0.3h-1.2c-0.2,0-0.3-0.1-0.3-0.3c0-0.2,0.1-0.4,0.3-0.8l9.2-25c0.1-0.3,0.3-0.5,0.5-0.5h1.4
				c0.3,0,0.4,0.2,0.5,0.5l9.5,25.5C51.8,56.4,51.8,56.5,51.8,56.5z M46.4,47.2L41,32.4l-5.3,14.8H46.4z"/>
			<path class="st1" d="M67.6,38.1c0,0.1,0,0.3-0.2,0.5l-6.9,17.9c-0.1,0.2-0.2,0.3-0.5,0.3h-1.4c-0.2,0-0.3,0-0.4-0.3l-7.1-18
				c-0.1-0.2-0.2-0.3-0.2-0.5c0-0.2,0.1-0.3,0.3-0.3h1.3c0.2,0,0.4,0.1,0.5,0.3l6.5,16.6l6.2-16.6c0.1-0.3,0.3-0.3,0.4-0.3h1.2
				C67.5,37.8,67.6,37.9,67.6,38.1z"/>
			<path class="st1" d="M77.3,55.4c1.5,0,4.1-0.3,5.4-4c0.1-0.2,0.2-0.3,0.4-0.3h1.2c0.2,0,0.3,0.1,0.3,0.3c0,0.1,0,0.2-0.1,0.5
				c-1.1,4.2-4.7,5.4-7.1,5.4c-4.3,0-7.5-2.9-7.5-8.2v-3.2c0-5.3,3.2-8.3,7.4-8.3s7.4,3,7.4,8.3v2c0,0.3-0.2,0.4-0.5,0.4H71.7v1
				C71.7,53.1,74.1,55.4,77.3,55.4z M82.8,45.7c0-4.1-2.3-6.5-5.6-6.5c-3.2,0-5.6,2.3-5.6,6.5v0.6h11.2V45.7z"/>
			<path class="st1" d="M90.9,56.4V38.3c0-0.3,0.2-0.5,0.4-0.5h0.9c0.3,0,0.5,0.2,0.5,0.5v3c0.8-1.9,2.4-3.5,5.6-3.5h0.6
				c0.3,0,0.5,0.2,0.5,0.5v0.9c0,0.3-0.2,0.4-0.5,0.4h-0.6c-4.3,0-5.5,4.3-5.5,7v9.8c0,0.3-0.2,0.4-0.5,0.4h-1
				C91,56.8,90.9,56.7,90.9,56.4z"/>
			<path class="st1" d="M104.3,56.4V38.3c0-0.3,0.2-0.5,0.4-0.5h0.9c0.3,0,0.5,0.2,0.5,0.5v3c0.8-1.9,2.4-3.5,5.6-3.5h0.6
				c0.3,0,0.5,0.2,0.5,0.5v0.9c0,0.3-0.2,0.4-0.5,0.4h-0.6c-4.3,0-5.5,4.3-5.5,7v9.8c0,0.3-0.2,0.4-0.5,0.4h-1
				C104.5,56.8,104.3,56.7,104.3,56.4z"/>
			<path class="st1" d="M123.1,37.4c4.2,0,7.4,3,7.4,8.3V49c0,5.3-3.2,8.2-7.4,8.2c-4.3,0-7.4-2.9-7.4-8.2v-3.2
				C115.7,40.4,118.9,37.4,123.1,37.4z M123.1,55.4c3.3,0,5.5-2.3,5.5-6.5v-3.1c0-4.2-2.3-6.5-5.5-6.5c-3.2,0-5.5,2.3-5.5,6.5v3.1
				C117.6,53.1,119.9,55.4,123.1,55.4z"/>
			<path class="st1" d="M142.2,55.4c1.5,0,4.1-0.3,5.4-4c0.1-0.2,0.2-0.3,0.4-0.3h1.2c0.2,0,0.3,0.1,0.3,0.3c0,0.1,0,0.2-0.1,0.5
				c-1.1,4.2-4.7,5.4-7.1,5.4c-4.3,0-7.5-2.9-7.5-8.2v-3.2c0-5.3,3.2-8.3,7.4-8.3s7.4,3,7.4,8.3v2c0,0.3-0.2,0.4-0.5,0.4h-12.6v1
				C136.5,53.1,139,55.4,142.2,55.4z M147.7,45.7c0-4.1-2.3-6.5-5.6-6.5c-3.2,0-5.6,2.3-5.6,6.5v0.6h11.2V45.7z"/>
			<path class="st1" d="M154.6,52.1c0-0.1,0-0.2,0.1-0.3c0.1-0.1,0.2-0.2,0.3-0.2h1c0.3,0,0.4,0.1,0.5,0.3c0.4,1.7,2.1,3.4,5.1,3.4
				c2.6,0,5-0.8,5-3.6c0-5.7-11.6-1.2-11.6-9.4c0-3.7,3.5-5,6.2-5c6.8,0,6.7,5,6.7,5v0.1c0,0.2-0.3,0.3-0.4,0.3h-1
				c-0.3,0-0.4-0.1-0.4-0.4c-0.2-1.3-0.8-3.2-4.8-3.2c-1.8,0-4.4,0.7-4.4,3.2c0,6,11.6,1.5,11.6,9.4c0,3.9-3.1,5.4-6.9,5.4
				C157.4,57.2,155,54.8,154.6,52.1z"/>
		</g>
		<g>
			<path class="st1" d="M76.5,65.1H62.6v10.5h11.3c0.3,0,0.5,0.2,0.5,0.5v0.9c0,0.3-0.2,0.4-0.5,0.4H62.6v10.8h13.9
				c0.3,0,0.5,0.2,0.5,0.5v0.9c0,0.3-0.2,0.4-0.5,0.4H61.1c-0.3,0-0.4-0.2-0.4-0.4V63.8c0-0.3,0.2-0.5,0.4-0.5h15.4
				c0.3,0,0.5,0.2,0.5,0.5v0.9C77,64.9,76.8,65.1,76.5,65.1z"/>
			<path class="st1" d="M93.3,89.5v-2.2c-0.9,1.7-2.9,3-5.6,3c-4.2,0-7.4-2.9-7.4-8.2v-3.2c0-5.3,3.2-8.3,7.4-8.3
				c2.7,0,4.7,1.4,5.6,3v-9.8c0-0.3,0.2-0.5,0.4-0.5h1c0.3,0,0.5,0.2,0.5,0.5v25.7c0,0.3-0.2,0.4-0.5,0.4h-1
				C93.5,89.9,93.3,89.8,93.3,89.5z M93.3,82v-3.4c0-4-2.4-6.2-5.6-6.2c-3.3,0-5.5,2.3-5.5,6.5V82c0,4.3,2.3,6.5,5.5,6.5
				C91,88.5,93.3,86.2,93.3,82z"/>
			<path class="st1" d="M104.9,64.8c0,0.9-0.6,1.5-1.5,1.5s-1.4-0.6-1.4-1.5c0-0.9,0.6-1.5,1.4-1.5S104.9,64,104.9,64.8z
				 M102.5,89.5V71.4c0-0.3,0.2-0.5,0.4-0.5h1c0.3,0,0.5,0.2,0.5,0.5v18.1c0,0.3-0.2,0.4-0.5,0.4h-1
				C102.7,89.9,102.5,89.8,102.5,89.5z"/>
			<path class="st1" d="M112.1,82.7v-10h-3.2c-0.3,0-0.4-0.2-0.4-0.4v-0.9c0-0.3,0.2-0.5,0.4-0.5c2.2,0,3.3-0.5,3.3-3.3v-1.2
				c0-0.3,0.2-0.5,0.4-0.5h0.9c0.3,0,0.5,0.2,0.5,0.5v4.5h4.7c0.3,0,0.5,0.2,0.5,0.5v0.9c0,0.3-0.2,0.4-0.5,0.4h-4.7v10
				c0,4.4,0.5,5.4,4.4,5.4h0.3c0.3,0,0.5,0.2,0.5,0.5v0.9c0,0.3-0.2,0.4-0.5,0.4h-0.3C112.6,89.9,112.1,87.6,112.1,82.7z"/>
			<path class="st1" d="M127.1,64.8c0,0.9-0.6,1.5-1.5,1.5s-1.4-0.6-1.4-1.5c0-0.9,0.6-1.5,1.4-1.5S127.1,64,127.1,64.8z
				 M124.7,89.5V71.4c0-0.3,0.2-0.5,0.4-0.5h1c0.3,0,0.5,0.2,0.5,0.5v18.1c0,0.3-0.2,0.4-0.5,0.4h-1
				C124.8,89.9,124.7,89.8,124.7,89.5z"/>
			<path class="st1" d="M140.3,70.6c4.2,0,7.4,3,7.4,8.3v3.2c0,5.3-3.2,8.2-7.4,8.2c-4.3,0-7.4-2.9-7.4-8.2v-3.2
				C132.9,73.5,136.1,70.6,140.3,70.6z M140.3,88.5c3.3,0,5.5-2.3,5.5-6.5v-3.1c0-4.2-2.3-6.5-5.5-6.5c-3.2,0-5.5,2.3-5.5,6.5V82
				C134.8,86.2,137.1,88.5,140.3,88.5z"/>
			<path class="st1" d="M153.2,89.5V71.4c0-0.3,0.2-0.5,0.4-0.5h1c0.3,0,0.5,0.2,0.5,0.5v2.3c0.8-1.6,2.5-3.2,5.4-3.2
				c4.7,0,7.3,3.3,7.3,8.3v10.7c0,0.3-0.2,0.4-0.5,0.4h-1c-0.3,0-0.4-0.2-0.4-0.4V78.9c0-4.2-2.2-6.5-5.4-6.5
				c-3.2,0-5.4,2.3-5.4,6.5v10.6c0,0.3-0.2,0.4-0.5,0.4h-1C153.3,89.9,153.2,89.8,153.2,89.5z"/>
		</g>
	</g>
	<path class="st2" d="M224.8,73.5c0,2.9-0.4,5.5-1.2,7.8s-2.3,5.5-4.6,9.5l-3.4-1.2c0.9-4.1,1.4-7.4,1.4-10c0-2-0.2-4.8-0.6-8.6
		c-0.4-3.8-0.9-7.5-1.4-11.2c-0.6-3.7-1.5-8.1-2.8-13.3c-0.5-1.8-0.7-3-0.7-3.7c0-1,0.6-2.7,1.8-5.1c1.2-2.4,2.8-5.3,5-8.7l3.4,17
		c1.3,6.5,2.1,12.1,2.6,16.9C224.6,66.6,224.8,70.1,224.8,73.5z"/>
	<path class="st2" d="M273.3,50.9l-14.7-20.5h-13.2L259.3,50c-6.7,3.4-10.6,9.9-11.7,19.5l-2.4,20.7h11.1l2.4-20.7
		c0.6-5.8,2.7-9.7,6.2-11.6l8.3,11.8V50.9z"/>
	<g>
		<path class="st2" d="M312.8,80.2c-2.4,1.8-5.5,3-9.3,3c-5.5,0-10.1-3.3-10.1-10.2c0-9.6,9.4-12.6,19.4-13.2v-7.4
			c-19.4,1.1-30.1,8.7-30.1,21.7c0,8.5,6.1,16.9,18,16.9c4.7,0,8.8-1.3,12.1-3.3V80.2z"/>
		<path class="st2" d="M304.7,37.5c3.5,0,6.1,0.8,8.1,2v-9.2c-1.9-0.4-4.1-0.6-6.5-0.6c-7.4,0-14.5,2.1-19.3,5.2l2.4,7
			C293.5,39.2,299.2,37.5,304.7,37.5z"/>
	</g>
	<line class="st3" x1="312.8" y1="29.3" x2="312.8" y2="90.8"/>
	<line class="st3" x1="273.3" y1="29.3" x2="273.3" y2="90.8"/>
	<line class="st3" x1="233.5" y1="29.3" x2="233.5" y2="90.8"/>
	<line class="st3" x1="194" y1="29.3" x2="194" y2="90.8"/>
	<g>
		<polygon class="st2" points="352.2,58.7 327.1,45.9 327.1,53.9 352.2,66.3 		"/>
		<polygon class="st2" points="352.2,70.7 327.1,83.2 327.1,91.1 352.2,78.4 		"/>
	</g>
	<line class="st3" x1="352.2" y1="29.3" x2="352.2" y2="90.8"/>
</g>
</svg>
